<svg xmlns="http://www.w3.org/2000/svg" width="16" height="15">
    <defs>
        <filter id="2zwmqgi0da">
            <feFlood flood-color="#AAB384" flood-opacity="1" result="floodOut"/>
            <feComposite in="floodOut" in2="SourceGraphic" operator="atop" result="compOut"/>
            <feBlend in="compOut" in2="SourceGraphic"/>
        </filter>
    </defs>
    <g filter="url(#2zwmqgi0da)">
        <path fill-rule="evenodd" d="M15.298 5.129l-4.408-.408c-.278-.025-.518-.198-.632-.459L8.679.51c-.253-.619-1.149-.619-1.402 0L5.711 4.262c-.101.261-.354.434-.632.459l-4.408.408c-.657.062-.922.867-.43 1.301l3.322 2.861c.215.185.304.458.24.73l-.998 4.013c-.151.632.544 1.152 1.125.817l3.675-2.117c.24-.137.531-.137.771 0l3.676 2.117c.581.335 1.275-.173 1.124-.817l-.985-4.013c-.064-.272.025-.545.24-.73l3.322-2.861c.48-.434.202-1.239-.455-1.301z"/>
    </g>
</svg>
