<svg xmlns="http://www.w3.org/2000/svg" width="16" height="15">
    <defs>
        <filter id="4gej6m7kfa">
            <feFlood flood-color="#AAB384" flood-opacity="1" result="floodOut"/>
            <feComposite in="floodOut" in2="SourceGraphic" operator="atop" result="compOut"/>
            <feBlend in="compOut" in2="SourceGraphic"/>
        </filter>
    </defs>
    <g filter="url(#4gej6m7kfa)">
        <path fill-rule="evenodd" d="M15.314 5.129l-4.408-.408c-.278-.025-.518-.198-.632-.459L8.696.51c-.253-.619-1.15-.619-1.403 0L5.727 4.262c-.101.261-.354.434-.631.459l-4.409.408c-.657.062-.922.867-.429 1.301L3.58 9.291c.214.185.303.458.24.73l-.998 4.013c-.152.632.543 1.152 1.124.817l3.676-2.117c.24-.137.53-.137.77 0l3.676 2.117c.581.335 1.276-.173 1.124-.817l-.985-4.013c-.063-.272.025-.545.24-.73l3.322-2.861c.48-.434.202-1.239-.455-1.301z"/>
    </g>
</svg>
