<svg xmlns="http://www.w3.org/2000/svg" width="16" height="15">
    <defs>
        <filter id="pb3kxozqta">
            <feFlood flood-color="#AAB384" flood-opacity="1" result="floodOut"/>
            <feComposite in="floodOut" in2="SourceGraphic" operator="atop" result="compOut"/>
            <feBlend in="compOut" in2="SourceGraphic"/>
        </filter>
    </defs>
    <g filter="url(#pb3kxozqta)">
        <path fill-rule="evenodd" d="M15.323 5.129l-4.409-.408c-.278-.025-.518-.198-.631-.459L8.704.51c-.253-.619-1.15-.619-1.402 0L5.735 4.262c-.101.261-.353.434-.631.459l-4.409.408c-.656.062-.922.867-.429 1.301l3.322 2.861c.215.185.303.458.24.73l-.998 4.013c-.152.632.543 1.152 1.124.817l3.676-2.117c.24-.137.531-.137.771 0l3.675 2.117c.581.335 1.276-.173 1.125-.817l-.986-4.013c-.063-.272.025-.545.24-.73l3.322-2.861c.48-.434.202-1.239-.454-1.301z"/>
    </g>
</svg>
