<svg xmlns="http://www.w3.org/2000/svg" width="11" height="21">
    <defs>
        <filter id="n91dhxkoaa">
            <feFlood flood-color="#6E774A" flood-opacity="1" result="floodOut"/>
            <feComposite in="floodOut" in2="SourceGraphic" operator="atop" result="compOut"/>
            <feBlend in="compOut" in2="SourceGraphic"/>
        </filter>
    </defs>
    <g filter="url(#n91dhxkoaa)">
        <path fill-rule="evenodd" d="M10.586.004L7.947-.001c-2.964 0-4.879 2.029-4.879 5.168v2.384H.415c-.229 0-.415.191-.415.428v3.452c0 .237.186.429.415.429h2.652v8.712c0 .236.186.428.415.428h3.461c.23 0 .415-.192.415-.428V11.86h3.102c.229 0 .415-.192.415-.429l.001-3.452c0-.114-.044-.223-.122-.303-.077-.08-.183-.125-.293-.125H7.358V5.53c0-.971.225-1.463 1.45-1.463l1.777-.001c.229 0 .415-.192.415-.428V.432c0-.236-.186-.428-.414-.428z"/>
    </g>
</svg>
