<svg xmlns="http://www.w3.org/2000/svg" width="22" height="18">
    <defs>
        <filter id="ab0900c6pa">
            <feFlood flood-color="#6E774A" flood-opacity="1" result="floodOut"/>
            <feComposite in="floodOut" in2="SourceGraphic" operator="atop" result="compOut"/>
            <feBlend in="compOut" in2="SourceGraphic"/>
        </filter>
    </defs>
    <g filter="url(#ab0900c6pa)">
        <path fill-rule="evenodd" d="M21.393.332c-.873.521-1.839.899-2.868 1.104C17.702.551 16.53 0 15.232 0c-2.493 0-4.514 2.035-4.514 4.544 0 .356.04.703.117 1.035C7.084 5.39 3.758 3.58 1.532.83c-.388.671-.61 1.451-.61 2.285 0 1.577.798 2.968 2.007 3.783-.739-.025-1.435-.23-2.044-.571v.057c0 2.202 1.556 4.038 3.62 4.457-.378.103-.777.16-1.189.16-.291 0-.573-.03-.85-.083.575 1.806 2.241 3.12 4.215 3.157-1.544 1.219-3.491 1.945-5.604 1.945-.365 0-.724-.022-1.077-.062C1.998 17.246 4.369 18 6.918 18c8.302 0 12.841-6.926 12.841-12.932l-.015-.59c.885-.637 1.652-1.438 2.256-2.349-.81.361-1.678.607-2.591.716.932-.562 1.646-1.454 1.984-2.513z"/>
    </g>
</svg>
